<svg xmlns="http://www.w3.org/2000/svg" width="21.771" height="19.905" viewBox="0 0 21.771 19.905"><path d="M1337.082,1169.184l2.609,2.4a.552.552,0,0,1,.186.51l-.616,3.384a2.858,2.858,0,0,0,2.873,3.308c.9,0,1.113-.2,4.567-1.914a.825.825,0,0,1,.717,0l3.225,1.6a2.9,2.9,0,0,0,4.214-2.993l-.616-3.383a.553.553,0,0,1,.186-.51l2.609-2.4a2.792,2.792,0,0,0-1.6-4.828l-3.606-.494a.716.716,0,0,1-.545-.358l-1.612-3.078a2.974,2.974,0,0,0-5.217,0l-1.613,3.078a.714.714,0,0,1-.545.358l-3.606.494a2.792,2.792,0,0,0-1.6,4.828Zm1.9-2.646,3.606-.494a2.92,2.92,0,0,0,2.2-1.519l1.612-3.078a.774.774,0,0,1,1.315,0l1.612,3.078a2.92,2.92,0,0,0,2.2,1.519l3.606.494c.556.076.817.654.414,1.024l-2.609,2.4a2.751,2.751,0,0,0-.863,2.527l.616,3.383c.09.5-.536.889-1.07.625l-3.225-1.6a3.028,3.028,0,0,0-2.672,0l-3.225,1.6c-.521.258-1.163-.117-1.07-.624l.616-3.383a2.75,2.75,0,0,0-.863-2.527l-2.609-2.4c-.4-.37-.142-.948.414-1.024Zm0,0" transform="translate(-1336.173 -1158.88)" fill="#fff"/></svg>