<svg xmlns="http://www.w3.org/2000/svg" width="16.884" height="14.131" viewBox="0 0 16.884 14.131"><path d="M1357.125,394.114a.96.96,0,0,0-.96-.96h-10.693a.96.96,0,0,0,0,1.92h10.693a.96.96,0,0,0,.96-.96Zm-15.684-1.3a1.2,1.2,0,1,1-1.2,1.2,1.2,1.2,0,0,1,1.2-1.2Zm14.724-3.751h-10.693a.96.96,0,0,1,0-1.92h10.693a.96.96,0,0,1,0,1.92Zm-14.724-2.256a1.2,1.2,0,1,1-1.2,1.2,1.2,1.2,0,0,1,1.2-1.2Zm14.724,13.994h-10.693a.96.96,0,0,1,0-1.92h10.693a.96.96,0,0,1,0,1.92Zm-14.724-2.256a1.2,1.2,0,1,1-1.2,1.2,1.2,1.2,0,0,1,1.2-1.2Zm0,0" transform="translate(-1340.24 -386.812)" fill="#fff"/></svg>