<?xml version="1.0" standalone="no"?>
<!DOCTYPE svg PUBLIC "-//W3C//DTD SVG 20010904//EN"
 "http://www.w3.org/TR/2001/REC-SVG-20010904/DTD/svg10.dtd">
<svg version="1.0" xmlns="http://www.w3.org/2000/svg"
 width="706.000000pt" height="540.000000pt" viewBox="0 0 706.000000 540.000000"
 preserveAspectRatio="xMidYMid meet">
<metadata>
Created by potrace 1.16, written by Peter Selinger 2001-2019
</metadata>
<g transform="translate(0.000000,540.000000) scale(0.100000,-0.100000)"
fill="#000000" stroke="none">
<path d="M1871 5386 c-9 -11 -10 -20 -2 -35 6 -11 288 -355 627 -763 339 -409
624 -761 635 -783 18 -38 19 -87 19 -1222 l0 -1183 1955 0 1955 0 -1 683 c-1
375 -5 1060 -9 1522 -6 713 -10 850 -23 906 -109 457 -451 792 -891 874 -70
13 -274 15 -1554 13 l-1473 -3 401 -472 401 -473 1030 0 c1116 0 1068 2 1127
-53 54 -50 52 -5 52 -987 0 -990 3 -936 -54 -998 -55 -61 -28 -59 -771 -67
-731 -7 -714 -6 -768 -61 -16 -16 -90 -153 -165 -309 -75 -154 -167 -341 -204
-415 l-68 -135 2 1350 c1 1154 0 1355 -13 1383 -8 17 -241 304 -519 636 l-505
605 -586 0 c-498 1 -588 -1 -598 -13z"/>
<path d="M32 5378 c-13 -18 -34 -2298 -21 -2357 5 -23 20 -62 32 -86 12 -23
290 -378 617 -789 l595 -746 472 0 473 0 0 768 0 768 418 356 c229 196 427
367 440 381 30 32 38 84 19 127 -15 36 -1224 1504 -1258 1529 -25 17 -26 17
-224 -153 -153 -131 -160 -136 -175 -117 -8 11 -73 90 -145 175 l-129 156
-552 0 c-429 0 -554 -3 -562 -12z m810 -730 c321 -392 591 -725 601 -740 47
-75 47 -66 47 -1310 l0 -1168 -105 0 -105 0 -1 613 c-1 336 -4 866 -8 1177 -6
564 -6 565 -30 612 -12 26 -116 163 -229 305 -706 883 -961 1207 -956 1214 3
5 49 9 104 9 l98 0 584 -712z m245 55 c290 -362 542 -685 560 -719 65 -122 63
-68 63 -1371 l0 -1183 -95 0 -95 0 0 1184 c0 1143 -1 1186 -19 1246 -11 35
-34 81 -52 104 -18 22 -278 340 -578 706 -299 366 -548 671 -554 678 -7 9 17
12 116 12 l126 0 528 -657z m253 17 c283 -352 525 -661 538 -686 56 -111 55
-76 59 -1391 l4 -1213 -100 0 -101 0 0 1198 c0 1311 3 1248 -59 1370 -17 34
-242 324 -542 698 -282 351 -516 645 -522 652 -7 9 14 12 99 12 l109 0 515
-640z m280 45 c330 -395 503 -611 520 -646 l25 -54 3 -1317 2 -1318 -99 0
-100 0 -4 1228 c-3 1115 -5 1233 -20 1290 -20 74 -48 132 -91 187 -36 47 -683
850 -863 1073 l-123 152 127 -1 128 0 495 -594z"/>
<path d="M10 1035 l0 -95 3525 0 3525 0 0 95 0 95 -3525 0 -3525 0 0 -95z"/>
<path d="M790 663 c-38 -48 -8 -103 56 -103 41 0 64 23 64 64 0 66 -79 91
-120 39z"/>
<path d="M246 639 c-20 -17 -40 -47 -46 -67 -5 -20 -10 -117 -10 -214 l0 -178
80 0 80 0 0 169 c0 155 8 207 24 165 3 -9 6 -87 6 -175 l0 -159 75 0 75 0 2
170 c2 105 7 170 13 170 6 0 11 -65 13 -170 l2 -170 75 0 75 0 0 190 c0 208
-6 240 -55 278 -49 39 -171 23 -189 -24 -5 -13 -11 -11 -41 15 -31 27 -44 31
-90 31 -46 0 -59 -4 -89 -31z"/>
<path d="M980 415 l0 -235 70 0 70 0 0 235 0 235 -70 0 -70 0 0 -235z"/>
<path d="M1840 497 c0 -141 -2 -155 -20 -172 -17 -15 -24 -16 -45 -7 -50 23
-20 89 33 75 21 -5 22 -2 22 70 l0 75 -47 -6 c-108 -11 -176 -79 -176 -175 0
-106 73 -177 182 -177 63 0 98 13 139 53 45 43 52 79 52 260 l0 157 -70 0 -70
0 0 -153z"/>
<path d="M2580 415 l0 -235 80 0 80 0 0 171 0 172 49 -6 c64 -8 89 -24 102
-67 20 -66 -20 -116 -101 -127 l-40 -6 0 -68 0 -69 51 0 c72 0 122 17 170 59
53 44 78 101 79 170 0 77 -18 127 -63 172 -55 55 -110 69 -274 69 l-133 0 0
-235z"/>
<path d="M4182 468 c3 -173 4 -185 26 -216 32 -44 90 -72 151 -72 61 0 97 13
134 48 41 39 57 74 57 127 0 56 -18 92 -65 133 -35 32 -47 36 -117 46 l-38 5
0 -75 c0 -72 1 -75 21 -69 13 4 27 0 40 -11 24 -22 24 -36 -1 -59 -17 -15 -24
-16 -45 -7 l-25 12 0 160 0 160 -71 0 -70 0 3 -182z"/>
<path d="M5290 585 l0 -64 75 -3 74 -3 -69 -159 c-39 -88 -70 -164 -70 -168 0
-4 83 -8 185 -8 l185 0 0 65 0 64 -75 3 -74 3 73 168 74 167 -189 0 -189 0 0
-65z"/>
<path d="M6340 497 c0 -141 -2 -155 -20 -172 -17 -15 -24 -16 -45 -7 -50 23
-20 89 33 75 21 -5 22 -2 22 70 l0 75 -47 -6 c-108 -11 -176 -79 -176 -175 0
-106 73 -177 182 -177 63 0 98 13 139 53 45 43 52 79 52 260 l0 157 -70 0 -70
0 0 -153z"/>
<path d="M3674 531 c-110 -13 -137 -57 -142 -228 l-4 -123 70 0 70 0 4 100 c3
102 13 127 46 115 9 -3 12 15 12 70 0 41 -1 74 -2 74 -2 -1 -26 -5 -54 -8z"/>
<path d="M770 355 l0 -175 70 0 70 0 0 175 0 175 -70 0 -70 0 0 -175z"/>
<path d="M1275 514 c-43 -23 -65 -45 -82 -79 -21 -39 -20 -122 1 -162 21 -41
74 -81 114 -88 18 -3 46 -7 62 -10 l30 -5 0 70 c0 64 -2 70 -21 70 -59 0 -83
60 -33 82 23 11 29 10 45 -11 15 -19 19 -40 19 -112 l0 -89 70 0 70 0 0 108
c0 124 -17 174 -71 213 -44 31 -158 38 -204 13z"/>
<path d="M3185 514 c-43 -23 -65 -45 -82 -79 -21 -39 -20 -122 1 -162 21 -41
74 -81 114 -88 18 -3 46 -7 62 -10 l30 -5 0 70 c0 64 -2 70 -21 70 -59 0 -83
60 -33 82 23 11 29 10 45 -11 15 -19 19 -40 19 -112 l0 -89 70 0 70 0 0 108
c0 124 -17 174 -71 213 -44 31 -158 38 -204 13z"/>
<path d="M3845 514 c-43 -23 -65 -45 -82 -79 -21 -39 -20 -122 1 -162 21 -41
74 -81 114 -88 18 -3 46 -7 62 -10 l30 -5 0 70 c0 64 -2 70 -21 70 -59 0 -83
60 -33 82 23 11 29 10 45 -11 15 -19 19 -40 19 -112 l0 -89 70 0 70 0 0 108
c0 124 -17 174 -71 213 -44 31 -158 38 -204 13z"/>
<path d="M5775 514 c-43 -23 -65 -45 -82 -79 -21 -39 -20 -122 1 -162 21 -41
74 -81 114 -88 18 -3 46 -7 62 -10 l30 -5 0 70 c0 64 -2 70 -21 70 -59 0 -83
60 -33 82 23 11 29 10 45 -11 15 -19 19 -40 19 -112 l0 -89 70 0 70 0 0 108
c0 124 -17 174 -71 213 -44 31 -158 38 -204 13z"/>
<path d="M6607 509 c-55 -29 -90 -87 -90 -152 0 -109 72 -177 188 -177 52 0
115 21 115 38 0 4 -17 24 -36 45 -27 29 -41 37 -58 33 -37 -9 -66 19 -66 64 0
30 5 43 24 55 25 17 51 12 60 -11 4 -10 -3 -14 -29 -14 -25 0 -35 -5 -40 -20
-3 -11 -3 -24 0 -30 3 -6 51 -10 111 -10 101 0 104 1 104 23 0 69 -50 143
-113 166 -45 17 -128 12 -170 -10z"/>
</g>
</svg>
